<svg version="1.1" id="Layer_1" xmlns="http://www.w3.org/2000/svg" xmlns:xlink="http://www.w3.org/1999/xlink" x="0px" y="0px"
	 width="100%" viewBox="0 0 500 195" enable-background="new 0 0 500 195" xml:space="preserve">
<path fill="#19151D" opacity="1.000000" stroke="none" 
	d="
M309.000000,196.000000 
	C206.000015,196.000000 103.500038,196.000000 1.000041,196.000000 
	C1.000028,131.000031 1.000028,66.000061 1.000014,1.000067 
	C167.666611,1.000045 334.333221,1.000045 500.999878,1.000022 
	C500.999908,65.999931 500.999908,130.999863 500.999939,195.999893 
	C437.166656,196.000000 373.333344,196.000000 309.000000,196.000000 
M89.482895,170.843674 
	C86.667892,169.984299 82.606651,170.024872 81.233925,168.123947 
	C69.661453,152.098709 58.580662,135.718414 47.198463,119.222267 
	C55.413181,109.007423 63.688396,99.008499 71.593498,88.725060 
	C74.257248,85.259888 76.967773,83.185432 81.467537,83.923584 
	C84.219063,84.374962 85.564934,83.327293 84.428551,80.261978 
	C75.449486,80.261978 66.527443,80.261978 57.671608,80.261978 
	C56.417240,84.484215 59.180702,83.958694 61.485817,83.956375 
	C63.852528,83.953995 66.219238,83.955841 69.330956,83.955841 
	C58.698750,97.115158 48.846153,109.473328 38.758015,121.636124 
	C37.054123,123.690430 34.335030,124.902695 31.502483,126.918556 
	C31.502483,111.738533 31.502483,97.982048 31.502483,84.257805 
	C41.124035,83.425072 41.124035,83.425072 40.631248,80.213501 
	C29.520067,80.213501 18.408886,80.213501 7.154128,80.213501 
	C7.154128,81.392014 7.025671,83.178337 7.173029,83.201393 
	C10.356082,83.699287 13.569928,84.000328 16.840866,84.346039 
	C16.840866,112.884537 16.840866,141.289581 16.840866,169.669586 
	C7.303665,170.658951 7.303665,170.658951 7.510473,173.842102 
	C18.615726,173.842102 29.730297,173.842102 40.837162,173.842102 
	C40.968353,170.968262 40.968353,170.968262 31.422857,169.540588 
	C31.422857,156.816162 31.422857,144.057388 31.422857,130.246445 
	C33.842991,130.649460 37.119835,130.220993 38.054962,131.501968 
	C47.141632,143.949356 55.836136,156.683060 64.581818,169.248001 
	C61.781437,171.896942 55.937359,167.142288 54.612091,174.006287 
	C65.929512,174.006287 76.407425,174.064423 86.882042,173.905502 
	C87.806198,173.891479 88.708839,172.459351 89.482895,170.843674 
M442.352081,95.222122 
	C443.932465,87.853966 448.714691,83.816078 455.871399,82.303864 
	C468.763672,79.579704 478.483551,84.879997 483.193542,97.228783 
	C484.078827,99.549843 484.617859,102.007744 485.574310,104.294762 
	C486.022064,105.365440 487.083221,106.179611 488.235596,107.548744 
	C488.235596,97.727089 488.235596,88.904648 488.235596,79.718689 
	C482.349274,82.523315 482.337952,82.558815 475.809021,80.477081 
	C466.860687,77.623932 457.877258,76.526222 449.040955,80.614250 
	C438.423798,85.526207 433.122925,95.480713 433.855865,108.482841 
	C434.454620,119.103905 439.503357,125.095299 451.677338,129.078384 
	C459.244232,131.554138 467.101562,133.213730 474.527710,136.032333 
	C487.418793,140.925201 489.866516,156.211716 479.650452,165.432037 
	C471.156769,173.097824 448.453888,175.170227 440.236023,158.842804 
	C438.384705,155.164597 437.313843,151.100449 435.702850,147.290451 
	C435.174500,146.040924 434.074341,145.033127 433.097626,143.730682 
	C433.097626,154.131500 433.092224,163.595444 433.110504,173.059326 
	C433.111633,173.651718 433.298248,174.243759 433.439392,175.076950 
	C434.397949,174.863388 435.447327,174.884537 435.563873,174.565201 
	C437.173553,170.155167 440.213531,171.126770 443.709869,171.834946 
	C450.356262,173.181152 457.104156,174.747925 463.828949,174.840561 
	C479.583313,175.057571 490.946228,165.207428 493.096527,150.464600 
	C495.501801,133.973221 489.236786,124.328407 472.622131,118.964157 
	C465.678833,116.722443 458.606415,114.816269 451.816986,112.179970 
	C444.665985,109.403275 441.171661,103.938522 442.352081,95.222122 
M328.479004,174.009827 
	C332.283997,174.009827 336.088959,174.009827 340.508087,174.009827 
	C338.454987,167.715210 333.038330,172.284119 329.929169,169.607285 
	C329.929169,160.786377 330.045929,151.643127 329.889587,142.504532 
	C329.778717,136.026093 329.699280,129.502106 328.869080,123.093887 
	C328.068573,116.915016 324.384644,112.408478 318.343750,110.275131 
	C307.958466,106.607582 295.537262,110.291481 288.663391,118.934837 
	C288.037018,119.722443 287.275757,120.402763 286.033386,121.701202 
	C286.033386,117.345741 286.033386,113.887863 286.033386,110.212769 
	C278.385376,110.212769 270.950104,110.212769 263.331146,110.212769 
	C263.331146,111.107437 263.208588,112.529640 263.349152,112.556145 
	C266.479706,113.146393 269.639221,113.582726 272.915833,114.066338 
	C272.915833,132.784882 272.915833,151.517700 272.915833,169.747482 
	C269.773346,172.037979 264.789886,167.911514 262.768250,173.784103 
	C274.320984,173.784103 285.256592,173.784103 297.034576,173.784103 
	C294.655243,167.989807 289.370819,172.175690 286.632019,169.907623 
	C286.632019,157.074753 286.134796,144.257828 286.806702,131.502502 
	C287.255035,122.991333 292.552246,117.092834 300.782837,114.447517 
	C310.101318,111.452545 315.898651,115.212990 316.728027,124.917885 
	C317.194794,130.379791 316.937286,135.906158 316.951324,141.403625 
	C316.975830,151.017181 316.958130,160.630859 316.958130,170.190552 
	C307.311951,170.948990 307.311951,170.948990 307.542816,174.009827 
	C314.179718,174.009827 320.833344,174.009827 328.479004,174.009827 
M157.086121,159.539322 
	C156.570984,158.399597 156.055847,157.259888 155.540710,156.120163 
	C155.014481,157.147766 154.441559,158.155182 153.984467,159.212662 
	C153.795135,159.650711 153.937790,160.223343 153.786118,160.687988 
	C152.763077,163.822083 153.213135,168.385376 148.180817,168.136703 
	C142.946838,167.878052 144.042923,163.484100 143.782150,160.165863 
	C143.665070,158.676193 143.789612,157.169144 143.754730,155.671158 
	C143.526138,145.858231 143.559753,136.028351 142.946671,126.239151 
	C142.555252,119.989288 139.804230,114.423973 133.751556,111.807671 
	C123.397057,107.331863 112.962944,107.749443 103.077431,113.327026 
	C97.826813,116.289520 95.733757,121.522522 96.759903,126.829659 
	C97.531418,130.819916 99.751274,133.173645 103.925812,132.900543 
	C107.881134,132.641830 110.479042,130.391556 110.939064,126.389854 
	C111.350914,122.807320 111.157951,119.272354 104.744293,119.591530 
	C106.448692,117.109856 107.168587,115.123871 108.584457,114.155922 
	C116.390381,108.819435 128.099899,113.478470 129.727844,122.831017 
	C130.794647,128.959824 130.701172,135.290604 131.159195,141.997086 
	C127.522270,141.997086 124.678612,141.658844 121.945396,142.064590 
	C115.423973,143.032684 108.689865,143.590897 102.535126,145.732712 
	C95.712486,148.106964 93.155060,154.204620 93.954445,161.996841 
	C94.600883,168.298157 98.428642,172.493088 105.369064,174.121048 
	C115.230949,176.434250 124.004234,174.618210 131.054794,166.239059 
	C133.102539,172.374466 137.193954,174.877899 142.942093,174.999191 
	C151.551193,175.180832 155.407379,171.201996 157.086121,159.539322 
M376.633728,48.776035 
	C376.332947,51.168064 376.032166,53.560089 375.663055,56.495422 
	C369.388245,51.225487 363.597198,46.361855 357.806183,41.498219 
	C357.523804,41.846550 357.241425,42.194881 356.959045,42.543209 
	C361.928680,48.399818 366.898346,54.256428 372.229187,60.538700 
	C355.981140,61.808826 340.690094,63.004143 325.399048,64.199463 
	C325.385681,64.626686 325.372284,65.053917 325.358887,65.481148 
	C340.694122,66.713348 356.029388,67.945549 372.063171,69.233879 
	C366.618927,75.610970 361.749969,81.314217 356.881012,87.017464 
	C357.252563,87.404243 357.624115,87.791031 357.995667,88.177811 
	C363.784210,83.279564 369.572754,78.381317 375.894806,73.031609 
	C377.178680,89.186600 378.396027,104.504150 379.613373,119.821693 
	C380.041260,119.795212 380.469147,119.768730 380.897034,119.742249 
	C382.102600,104.478386 383.308136,89.214523 384.581879,73.087257 
	C391.479584,78.866692 397.527557,83.934135 403.575500,89.001587 
	C403.863037,88.680176 404.150574,88.358772 404.438080,88.037361 
	C399.258392,81.933258 394.078705,75.829155 388.473602,69.223686 
	C404.589966,67.925034 419.776367,66.701324 434.962799,65.477608 
	C434.935852,65.048363 434.908875,64.619125 434.881927,64.189880 
	C419.588379,62.981750 404.294800,61.773621 388.238464,60.505234 
	C393.648682,54.151810 398.492981,48.462955 403.337280,42.774105 
	C402.980469,42.451801 402.623657,42.129501 402.266876,41.807198 
	C396.566345,46.586857 390.865845,51.366520 384.536896,56.673115 
	C383.276672,40.429195 382.099121,25.250332 380.921539,10.071467 
	C380.461182,10.052279 380.000824,10.033089 379.540436,10.013900 
	C378.601868,22.636539 377.663269,35.259182 376.633728,48.776035 
M175.618042,119.846649 
	C174.802032,117.710258 173.986023,115.573860 172.984131,112.950821 
	C176.977646,112.950821 180.420441,112.950821 185.464218,112.950821 
	C183.600098,111.197487 182.776703,109.743912 181.927567,109.728706 
	C172.765045,109.564568 163.597397,109.568115 154.435043,109.737122 
	C153.691025,109.750847 152.975708,111.320396 152.247055,112.166985 
	C158.215988,111.623634 159.520889,115.248459 161.118195,119.104927 
	C168.236908,136.292221 175.514023,153.414642 182.875763,170.499359 
	C183.613785,172.212158 185.310165,173.511993 186.561798,175.003479 
	C187.676270,173.561905 189.192047,172.280945 189.843246,170.653931 
	C196.508835,154.000122 203.036057,137.290924 209.597153,120.595322 
	C211.317551,116.217552 211.939468,110.566498 219.651932,112.409874 
	C213.059586,107.922722 206.017349,110.359398 199.444138,109.725586 
	C198.438293,109.628593 197.297943,110.926544 196.219803,111.579338 
	C196.465317,112.090927 196.710831,112.602516 196.956345,113.114105 
	C200.189590,113.114105 203.422821,113.114105 207.128403,113.114105 
	C201.528366,128.051712 196.127060,142.459229 190.306778,157.984283 
	C185.195404,144.703552 180.549698,132.632767 175.618042,119.846649 
M233.487030,114.445862 
	C233.487030,132.895660 233.487030,151.345444 233.487030,169.737549 
	C224.044220,171.801453 224.044220,171.801453 223.869598,173.794342 
	C234.821533,173.794342 245.758545,173.794342 257.216461,173.794342 
	C255.341431,167.457596 249.689529,172.481277 246.448151,169.176773 
	C246.448151,149.951233 246.448151,130.068207 246.448151,109.980080 
	C242.238281,109.980080 238.580643,109.980072 234.923004,109.980072 
	C231.157852,109.980072 227.392715,109.980080 223.627563,109.980080 
	C223.438690,110.493515 223.249832,111.006958 223.060959,111.520393 
	C224.127792,112.202988 225.124817,113.277924 226.276627,113.482811 
	C228.382919,113.857491 230.580734,113.717712 233.487030,114.445862 
M234.858322,81.066872 
	C230.869614,84.429947 229.776886,88.572998 232.022751,92.390190 
	C234.377045,96.391655 238.176025,96.674797 242.084152,95.657875 
	C245.899307,94.665138 247.826385,90.494858 246.994186,85.924568 
	C246.112030,81.079887 242.037750,79.222115 234.858322,81.066872 
M404.525177,41.505642 
	C404.525177,41.505642 404.490265,41.493664 404.525177,41.505642 
z"/>
<path fill="#FBFBFB" opacity="1.000000" stroke="none" 
	d="
M89.552185,171.264771 
	C88.708839,172.459351 87.806198,173.891479 86.882042,173.905502 
	C76.407425,174.064423 65.929512,174.006287 54.612091,174.006287 
	C55.937359,167.142288 61.781437,171.896942 64.581818,169.248001 
	C55.836136,156.683060 47.141632,143.949356 38.054962,131.501968 
	C37.119835,130.220993 33.842991,130.649460 31.422857,130.246445 
	C31.422857,144.057388 31.422857,156.816162 31.422857,169.540588 
	C40.968353,170.968262 40.968353,170.968262 40.837162,173.842102 
	C29.730297,173.842102 18.615726,173.842102 7.510473,173.842102 
	C7.303665,170.658951 7.303665,170.658951 16.840866,169.669586 
	C16.840866,141.289581 16.840866,112.884537 16.840866,84.346039 
	C13.569928,84.000328 10.356082,83.699287 7.173029,83.201393 
	C7.025671,83.178337 7.154128,81.392014 7.154128,80.213501 
	C18.408886,80.213501 29.520067,80.213501 40.631981,80.212585 
	C41.124035,83.425072 41.124035,83.425072 31.502483,84.257805 
	C31.502483,97.982048 31.502483,111.738533 31.502483,126.918556 
	C34.335030,124.902695 37.054123,123.690430 38.758015,121.636124 
	C48.846153,109.473328 58.698750,97.115158 69.330956,83.955841 
	C66.219238,83.955841 63.852528,83.953995 61.485817,83.956375 
	C59.180702,83.958694 56.417240,84.484215 57.671608,80.261978 
	C66.527443,80.261978 75.449486,80.261978 84.428551,80.261978 
	C85.564934,83.327293 84.219063,84.374962 81.467537,83.923584 
	C76.967773,83.185432 74.257248,85.259888 71.593498,88.725060 
	C63.688396,99.008499 55.413181,109.007423 47.198463,119.222267 
	C58.580662,135.718414 69.661453,152.098709 81.233925,168.123947 
	C82.606651,170.024872 86.667892,169.984299 89.552185,171.264771 
z"/>
<path fill="#F8F8F8" opacity="1.000000" stroke="none" 
	d="
M442.281311,95.627579 
	C441.171661,103.938522 444.665985,109.403275 451.816986,112.179970 
	C458.606415,114.816269 465.678833,116.722443 472.622131,118.964157 
	C489.236786,124.328407 495.501801,133.973221 493.096527,150.464600 
	C490.946228,165.207428 479.583313,175.057571 463.828949,174.840561 
	C457.104156,174.747925 450.356262,173.181152 443.709869,171.834946 
	C440.213531,171.126770 437.173553,170.155167 435.563873,174.565201 
	C435.447327,174.884537 434.397949,174.863388 433.439392,175.076950 
	C433.298248,174.243759 433.111633,173.651718 433.110504,173.059326 
	C433.092224,163.595444 433.097626,154.131500 433.097626,143.730682 
	C434.074341,145.033127 435.174500,146.040924 435.702850,147.290451 
	C437.313843,151.100449 438.384705,155.164597 440.236023,158.842804 
	C448.453888,175.170227 471.156769,173.097824 479.650452,165.432037 
	C489.866516,156.211716 487.418793,140.925201 474.527710,136.032333 
	C467.101562,133.213730 459.244232,131.554138 451.677338,129.078384 
	C439.503357,125.095299 434.454620,119.103905 433.855865,108.482841 
	C433.122925,95.480713 438.423798,85.526207 449.040955,80.614250 
	C457.877258,76.526222 466.860687,77.623932 475.809021,80.477081 
	C482.337952,82.558815 482.349274,82.523315 488.235596,79.718689 
	C488.235596,88.904648 488.235596,97.727089 488.235596,107.548744 
	C487.083221,106.179611 486.022064,105.365440 485.574310,104.294762 
	C484.617859,102.007744 484.078827,99.549843 483.193542,97.228783 
	C478.483551,84.879997 468.763672,79.579704 455.871399,82.303864 
	C448.714691,83.816078 443.932465,87.853966 442.281311,95.627579 
z"/>
<path fill="#F9F9FA" opacity="1.000000" stroke="none" 
	d="
M327.983002,174.009827 
	C320.833344,174.009827 314.179718,174.009827 307.542816,174.009827 
	C307.311951,170.948990 307.311951,170.948990 316.958130,170.190552 
	C316.958130,160.630859 316.975830,151.017181 316.951324,141.403625 
	C316.937286,135.906158 317.194794,130.379791 316.728027,124.917885 
	C315.898651,115.212990 310.101318,111.452545 300.782837,114.447517 
	C292.552246,117.092834 287.255035,122.991333 286.806702,131.502502 
	C286.134796,144.257828 286.632019,157.074753 286.632019,169.907623 
	C289.370819,172.175690 294.655243,167.989807 297.034576,173.784103 
	C285.256592,173.784103 274.320984,173.784103 262.768250,173.784103 
	C264.789886,167.911514 269.773346,172.037979 272.915833,169.747482 
	C272.915833,151.517700 272.915833,132.784882 272.915833,114.066338 
	C269.639221,113.582726 266.479706,113.146393 263.349152,112.556145 
	C263.208588,112.529640 263.331146,111.107437 263.331146,110.212769 
	C270.950104,110.212769 278.385376,110.212769 286.033386,110.212769 
	C286.033386,113.887863 286.033386,117.345741 286.033386,121.701202 
	C287.275757,120.402763 288.037018,119.722443 288.663391,118.934837 
	C295.537262,110.291481 307.958466,106.607582 318.343750,110.275131 
	C324.384644,112.408478 328.068573,116.915016 328.869080,123.093887 
	C329.699280,129.502106 329.778717,136.026093 329.889587,142.504532 
	C330.045929,151.643127 329.929169,160.786377 329.929169,169.607285 
	C333.038330,172.284119 338.454987,167.715210 340.508087,174.009827 
	C336.088959,174.009827 332.283997,174.009827 327.983002,174.009827 
z"/>
<path fill="#F7F7F7" opacity="1.000000" stroke="none" 
	d="
M157.063293,159.972626 
	C155.407379,171.201996 151.551193,175.180832 142.942093,174.999191 
	C137.193954,174.877899 133.102539,172.374466 131.054794,166.239059 
	C124.004234,174.618210 115.230949,176.434250 105.369064,174.121048 
	C98.428642,172.493088 94.600883,168.298157 93.954445,161.996841 
	C93.155060,154.204620 95.712486,148.106964 102.535126,145.732712 
	C108.689865,143.590897 115.423973,143.032684 121.945396,142.064590 
	C124.678612,141.658844 127.522270,141.997086 131.159195,141.997086 
	C130.701172,135.290604 130.794647,128.959824 129.727844,122.831017 
	C128.099899,113.478470 116.390381,108.819435 108.584457,114.155922 
	C107.168587,115.123871 106.448692,117.109856 104.744293,119.591530 
	C111.157951,119.272354 111.350914,122.807320 110.939064,126.389854 
	C110.479042,130.391556 107.881134,132.641830 103.925812,132.900543 
	C99.751274,133.173645 97.531418,130.819916 96.759903,126.829659 
	C95.733757,121.522522 97.826813,116.289520 103.077431,113.327026 
	C112.962944,107.749443 123.397057,107.331863 133.751556,111.807671 
	C139.804230,114.423973 142.555252,119.989288 142.946671,126.239151 
	C143.559753,136.028351 143.526138,145.858231 143.754730,155.671158 
	C143.789612,157.169144 143.665070,158.676193 143.782150,160.165863 
	C144.042923,163.484100 142.946838,167.878052 148.180817,168.136703 
	C153.213135,168.385376 152.763077,163.822083 153.786118,160.687988 
	C153.937790,160.223343 153.795135,159.650711 153.984467,159.212662 
	C154.441559,158.155182 155.014481,157.147766 155.540710,156.120163 
	C156.055847,157.259888 156.570984,158.399597 157.063293,159.972626 
M121.356255,169.151352 
	C130.228119,165.555466 132.667496,159.138580 130.024200,144.591904 
	C124.757698,145.634247 119.255402,146.005524 114.327377,147.883652 
	C108.412399,150.137924 106.079887,157.605850 108.236824,164.078461 
	C109.796562,168.758957 113.827324,170.489990 121.356255,169.151352 
z"/>
<path fill="#F4F4F5" opacity="1.000000" stroke="none" 
	d="
M376.679199,48.328926 
	C377.663269,35.259182 378.601868,22.636539 379.540436,10.013900 
	C380.000824,10.033089 380.461182,10.052279 380.921539,10.071467 
	C382.099121,25.250332 383.276672,40.429195 384.536896,56.673115 
	C390.865845,51.366520 396.566345,46.586857 402.266876,41.807198 
	C402.623657,42.129501 402.980469,42.451801 403.337280,42.774105 
	C398.492981,48.462955 393.648682,54.151810 388.238464,60.505234 
	C404.294800,61.773621 419.588379,62.981750 434.881927,64.189880 
	C434.908875,64.619125 434.935852,65.048363 434.962799,65.477608 
	C419.776367,66.701324 404.589966,67.925034 388.473602,69.223686 
	C394.078705,75.829155 399.258392,81.933258 404.438080,88.037361 
	C404.150574,88.358772 403.863037,88.680176 403.575500,89.001587 
	C397.527557,83.934135 391.479584,78.866692 384.581879,73.087257 
	C383.308136,89.214523 382.102600,104.478386 380.897034,119.742249 
	C380.469147,119.768730 380.041260,119.795212 379.613373,119.821693 
	C378.396027,104.504150 377.178680,89.186600 375.894806,73.031609 
	C369.572754,78.381317 363.784210,83.279564 357.995667,88.177811 
	C357.624115,87.791031 357.252563,87.404243 356.881012,87.017464 
	C361.749969,81.314217 366.618927,75.610970 372.063171,69.233879 
	C356.029388,67.945549 340.694122,66.713348 325.358887,65.481148 
	C325.372284,65.053917 325.385681,64.626686 325.399048,64.199463 
	C340.690094,63.004143 355.981140,61.808826 372.229187,60.538700 
	C366.898346,54.256428 361.928680,48.399818 356.959045,42.543209 
	C357.241425,42.194881 357.523804,41.846550 357.806183,41.498219 
	C363.597198,46.361855 369.388245,51.225487 375.663055,56.495422 
	C376.032166,53.560089 376.332947,51.168064 376.679199,48.328926 
z"/>
<path fill="#FAFAFA" opacity="1.000000" stroke="none" 
	d="
M175.761017,120.204308 
	C180.549698,132.632767 185.195404,144.703552 190.306778,157.984283 
	C196.127060,142.459229 201.528366,128.051712 207.128403,113.114105 
	C203.422821,113.114105 200.189590,113.114105 196.956345,113.114105 
	C196.710831,112.602516 196.465317,112.090927 196.219803,111.579338 
	C197.297943,110.926544 198.438293,109.628593 199.444138,109.725586 
	C206.017349,110.359398 213.059586,107.922722 219.651932,112.409874 
	C211.939468,110.566498 211.317551,116.217552 209.597153,120.595322 
	C203.036057,137.290924 196.508835,154.000122 189.843246,170.653931 
	C189.192047,172.280945 187.676270,173.561905 186.561798,175.003479 
	C185.310165,173.511993 183.613785,172.212158 182.875763,170.499359 
	C175.514023,153.414642 168.236908,136.292221 161.118195,119.104927 
	C159.520889,115.248459 158.215988,111.623634 152.247055,112.166985 
	C152.975708,111.320396 153.691025,109.750847 154.435043,109.737122 
	C163.597397,109.568115 172.765045,109.564568 181.927567,109.728706 
	C182.776703,109.743912 183.600098,111.197487 185.464218,112.950821 
	C180.420441,112.950821 176.977646,112.950821 172.984131,112.950821 
	C173.986023,115.573860 174.802032,117.710258 175.761017,120.204308 
z"/>
<path fill="#F5F5F5" opacity="1.000000" stroke="none" 
	d="
M233.113708,114.119171 
	C230.580734,113.717712 228.382919,113.857491 226.276627,113.482811 
	C225.124817,113.277924 224.127792,112.202988 223.060959,111.520393 
	C223.249832,111.006958 223.438690,110.493515 223.627563,109.980080 
	C227.392715,109.980080 231.157852,109.980072 234.923004,109.980072 
	C238.580643,109.980072 242.238281,109.980080 246.448151,109.980080 
	C246.448151,130.068207 246.448151,149.951233 246.448151,169.176773 
	C249.689529,172.481277 255.341431,167.457596 257.216461,173.794342 
	C245.758545,173.794342 234.821533,173.794342 223.869598,173.794342 
	C224.044220,171.801453 224.044220,171.801453 233.487030,169.737549 
	C233.487030,151.345444 233.487030,132.895660 233.113708,114.119171 
z"/>
<path fill="#FAFAFA" opacity="1.000000" stroke="none" 
	d="
M235.218811,80.893272 
	C242.037750,79.222115 246.112030,81.079887 246.994186,85.924568 
	C247.826385,90.494858 245.899307,94.665138 242.084152,95.657875 
	C238.176025,96.674797 234.377045,96.391655 232.022751,92.390190 
	C229.776886,88.572998 230.869614,84.429947 235.218811,80.893272 
z"/>
<path fill="#F4F4F5" opacity="1.000000" stroke="none" 
	d="
M404.507721,41.499653 
	C404.490265,41.493664 404.525177,41.505642 404.507721,41.499653 
z"/>
<path fill="#1D1921" opacity="1.000000" stroke="none" 
	d="
M120.974579,169.268097 
	C113.827324,170.489990 109.796562,168.758957 108.236824,164.078461 
	C106.079887,157.605850 108.412399,150.137924 114.327377,147.883652 
	C119.255402,146.005524 124.757698,145.634247 130.024200,144.591904 
	C132.667496,159.138580 130.228119,165.555466 120.974579,169.268097 
z"/>
</svg>