<svg version="1.1" id="Layer_1" xmlns="http://www.w3.org/2000/svg" xmlns:xlink="http://www.w3.org/1999/xlink" x="0px" y="0px"
	 width="100%" viewBox="0 0 500 500" enable-background="new 0 0 500 500" xml:space="preserve">
<path fill="#000000" opacity="1.000000" stroke="none" 
	d="
M268.000000,501.000000 
	C178.666687,501.000000 89.833374,501.000000 1.000048,501.000000 
	C1.000032,334.333405 1.000032,167.666794 1.000016,1.000137 
	C167.666565,1.000091 334.333130,1.000091 500.999756,1.000046 
	C500.999847,167.666519 500.999847,334.333038 500.999939,500.999786 
	C423.500000,501.000000 346.000000,501.000000 268.000000,501.000000 
M77.965187,256.607208 
	C81.027504,260.957672 84.157265,265.262695 87.130356,269.673309 
	C89.422981,273.074432 91.518906,276.608154 94.352722,281.118042 
	C90.785576,281.118042 89.026253,281.118042 87.226250,281.118042 
	C87.226250,282.883148 87.226250,284.286682 87.226250,285.788025 
	C97.545158,285.788025 107.637894,285.788025 117.801216,285.788025 
	C117.801216,284.149384 117.801216,282.724640 117.801216,282.217194 
	C114.526619,280.669098 110.792931,280.099487 109.177284,277.943024 
	C99.801529,265.428864 90.924248,252.541214 82.064110,240.041901 
	C87.381691,233.496368 92.251129,226.906693 97.766129,220.910782 
	C101.854759,216.465622 104.517136,209.456818 112.641777,211.108398 
	C112.641777,209.149948 112.641777,207.634995 112.641777,206.165985 
	C104.327477,206.165985 96.371231,206.165985 88.308273,206.165985 
	C88.308273,207.868896 88.308273,209.400040 88.308273,210.464417 
	C90.874077,211.061172 93.041008,211.565155 95.675827,212.177963 
	C88.593071,220.920761 82.437019,228.939011 75.758377,236.495392 
	C73.876175,238.624939 72.770737,242.977859 68.116714,241.741974 
	C68.116714,231.909027 68.116714,222.272629 68.116714,212.272141 
	C70.682175,211.676559 73.271019,211.075531 75.709595,210.509415 
	C75.709595,208.997955 75.709595,207.604034 75.709595,206.262527 
	C65.658676,206.262527 55.899563,206.262527 45.941319,206.262527 
	C46.044090,207.967453 46.129959,209.391968 46.198189,210.523819 
	C49.353325,211.134186 52.145493,211.674332 54.863388,212.200104 
	C54.863388,234.966583 54.863388,257.256226 54.863388,279.715118 
	C51.962048,280.278046 49.154026,280.822845 46.180023,281.399841 
	C46.180023,282.793121 46.180023,284.206238 46.180023,285.809875 
	C56.104977,285.809875 65.866348,285.809875 75.813324,285.809875 
	C75.813324,284.234772 75.813324,282.821106 75.813324,281.401642 
	C73.115715,280.752838 70.538109,280.132904 68.000015,279.522491 
	C68.000015,270.668152 67.909882,262.174377 68.081772,253.685898 
	C68.113304,252.128540 69.209091,250.592712 69.813614,249.046936 
	C71.187538,249.828308 72.762627,250.394852 73.884506,251.445374 
	C75.289215,252.760712 76.321701,254.473572 77.965187,256.607208 
M441.934937,281.582397 
	C449.672638,273.684448 451.708832,264.319763 448.998444,253.784607 
	C446.717743,244.919785 439.510254,241.701706 431.867432,239.013809 
	C425.243256,236.684143 418.421417,234.782043 412.062988,231.869949 
	C405.993500,229.090179 404.982910,220.969727 409.444397,216.023422 
	C414.294006,210.646805 420.509033,210.028381 426.973358,211.542770 
	C435.888214,213.631302 437.977783,221.416519 440.439667,228.773682 
	C442.201813,228.773682 443.955963,228.773682 446.376648,228.773682 
	C445.893921,224.781479 445.270630,221.097183 445.049774,217.388916 
	C444.826111,213.633392 445.000427,209.854172 445.000427,206.033127 
	C441.441040,206.439377 438.399475,207.230362 435.425751,207.027435 
	C430.279327,206.676254 425.186798,205.222473 420.050537,205.097000 
	C407.770660,204.797058 398.889008,212.319061 397.174957,225.218552 
	C395.974243,234.254715 398.394440,244.491211 412.481049,248.154800 
	C418.976868,249.844223 425.380798,251.920929 431.753784,254.040405 
	C441.176544,257.174103 443.581848,266.866821 437.761292,274.950470 
	C434.081573,280.060913 422.619904,282.008087 416.932343,280.503326 
	C408.775299,278.345245 404.770508,272.725189 402.940186,264.939606 
	C402.153320,261.592560 400.820648,258.613037 395.982635,260.449615 
	C396.431854,269.501465 396.887329,278.679199 397.366150,288.327179 
	C398.994110,287.911774 401.371918,287.959106 401.775482,287.089813 
	C403.608063,283.142822 406.106079,284.737885 408.952332,285.398651 
	C420.087036,287.983612 431.130066,288.886139 441.934937,281.582397 
M309.704590,286.000000 
	C317.334778,286.000000 324.964996,286.000000 332.794647,286.000000 
	C332.794647,284.265167 332.794647,282.855988 332.794647,281.392395 
	C330.151306,280.765930 327.569855,280.154114 325.000000,279.545044 
	C325.000000,267.059601 325.042267,254.912445 324.985657,242.765747 
	C324.945343,234.118561 318.784424,228.429535 310.308502,227.888062 
	C301.151550,227.303070 293.588074,229.799210 287.074585,238.229767 
	C287.074585,234.003403 287.074585,231.141846 287.074585,227.702148 
	C280.686737,228.249115 274.878235,228.746475 268.914276,229.257141 
	C269.038239,231.028473 269.139435,232.474915 269.235260,233.844299 
	C271.987030,234.427521 274.456085,234.950806 276.863037,235.460938 
	C276.863037,250.325790 276.863037,264.946594 276.863037,279.796539 
	C274.300262,280.340607 271.821686,280.866821 269.178101,281.428070 
	C269.178101,282.797577 269.178101,284.209991 269.178101,285.811279 
	C278.103180,285.811279 286.860992,285.811279 295.808899,285.811279 
	C295.808899,284.242188 295.808899,282.828979 295.808899,281.452850 
	C293.463196,280.797180 291.218109,280.169617 289.000000,279.549591 
	C289.000000,269.526031 289.247162,259.867188 288.928741,250.227081 
	C288.625305,241.039993 297.140747,235.431366 305.138763,236.145798 
	C308.949646,236.486221 312.923401,238.218918 312.965759,243.204681 
	C313.068787,255.337479 312.999298,267.471741 312.999298,279.677704 
	C310.608856,280.291229 308.465912,280.841187 305.941437,281.489105 
	C306.589905,283.214630 304.261292,286.403046 309.704590,286.000000 
M134.024582,236.911942 
	C136.448044,232.852280 140.575668,232.640030 144.339127,233.285858 
	C148.088348,233.929230 152.161194,235.524841 152.896301,240.036942 
	C153.728149,245.142868 153.882385,250.359192 154.372314,256.000000 
	C149.201385,256.000000 144.635437,255.367020 140.337479,256.169464 
	C135.582123,257.057281 130.650742,258.566589 126.558151,261.057465 
	C121.025894,264.424561 120.387596,271.671722 122.313339,278.744751 
	C123.526840,283.201874 129.714691,286.747620 134.966797,287.049316 
	C142.210068,287.465424 148.954346,286.670624 154.077347,280.485474 
	C156.847214,288.801575 168.702240,288.445312 174.965897,284.220917 
	C173.168106,282.992004 171.700073,281.146149 170.256378,281.165009 
	C166.446472,281.214752 165.987473,279.395630 165.937943,276.230011 
	C165.764832,265.165405 165.375336,254.103378 164.984818,243.043304 
	C164.735031,235.969086 161.052536,230.905106 154.037247,229.093521 
	C150.154709,228.090927 145.958313,228.201797 141.894119,228.027954 
	C135.413132,227.750732 130.261566,230.579117 126.144287,235.386124 
	C123.403503,238.586044 123.110428,244.244141 125.656555,247.090164 
	C128.140335,249.866470 131.294022,250.443512 134.807693,248.993790 
	C139.890762,246.896484 137.483719,242.713531 137.838852,239.785538 
	C136.287277,238.963837 135.149200,238.361099 134.024582,236.911942 
M209.962646,254.320877 
	C207.862381,259.970764 205.762100,265.620667 203.661835,271.270569 
	C203.222382,271.114319 202.782944,270.958069 202.343506,270.801819 
	C198.495590,258.690002 194.647659,246.578171 190.634995,233.947784 
	C193.455765,233.947784 195.554932,233.947784 197.819672,233.947784 
	C197.819672,232.193359 197.819672,230.787781 197.819672,229.191132 
	C189.221069,229.191132 180.800858,229.191132 172.190796,229.191132 
	C172.190796,230.761276 172.190796,232.174530 172.190796,234.197052 
	C177.157852,232.466156 177.839600,235.915909 179.049622,239.319260 
	C184.248001,253.940491 189.889252,268.408600 194.845474,283.109070 
	C196.418762,287.775635 199.539276,285.556946 202.049438,285.914825 
	C204.200836,286.221527 206.080231,286.398041 207.182022,283.026886 
	C212.052887,268.123505 217.736496,253.485336 222.585281,238.575348 
	C223.806320,234.820648 225.335846,233.489197 228.940292,233.937729 
	C229.185013,233.968185 229.472076,233.658615 229.765625,233.492355 
	C229.765625,232.091476 229.765625,230.693893 229.765625,229.000000 
	C226.233688,229.000000 222.931137,229.000000 219.628571,229.000000 
	C216.171005,229.000000 212.713440,229.000000 209.216034,229.000000 
	C209.216034,230.856720 209.216034,232.266937 209.216034,233.820877 
	C211.598099,233.973511 213.790710,234.113998 216.384232,234.280182 
	C214.132248,241.059799 212.066132,247.279892 209.962646,254.320877 
M356.823639,224.023102 
	C357.323425,224.396851 358.306976,224.889572 358.248810,225.126099 
	C357.600006,227.764496 356.468658,230.324432 356.146515,232.987656 
	C355.957825,234.547546 356.755554,237.516937 357.517303,237.658524 
	C359.757874,238.074936 362.324799,237.742401 364.504974,236.971085 
	C365.352112,236.671387 366.010803,234.359573 365.873718,233.057129 
	C365.562561,230.101120 364.704529,227.202698 364.068787,224.280853 
	C364.387573,223.987747 364.706360,223.694641 365.025146,223.401535 
	C367.283997,225.261047 369.343475,227.488968 371.869080,228.855530 
	C373.667175,229.828476 376.311737,230.328995 378.163544,229.738632 
	C379.463593,229.324188 381.185455,226.215286 380.730682,225.202103 
	C379.935883,223.431458 377.800476,221.921265 375.885468,221.070312 
	C372.551392,219.588776 368.957764,218.691360 365.151550,217.443726 
	C369.745026,216.212280 373.912201,215.061996 378.098114,213.984390 
	C380.947021,213.250961 381.494476,211.241531 380.912933,208.795776 
	C379.873138,204.422867 374.899170,203.471024 370.729034,206.845001 
	C369.008850,208.236771 367.435547,209.810074 364.910156,212.105453 
	C365.752655,207.049988 366.595673,203.328873 366.944946,199.561951 
	C367.395569,194.702240 363.538788,195.947098 361.050507,196.098480 
	C358.417969,196.258606 356.480988,197.472519 357.368134,200.906189 
	C358.201813,204.133102 358.558258,207.483337 359.124695,210.779312 
	C358.794678,211.038254 358.464661,211.297195 358.134613,211.556122 
	C355.485229,209.614304 353.012024,207.322769 350.118713,205.865021 
	C348.449005,205.023788 345.562500,204.733749 344.208832,205.650421 
	C342.840271,206.577164 342.164185,209.315018 342.221680,211.228348 
	C342.250671,212.193420 344.451599,213.419815 345.884430,213.951569 
	C349.418518,215.263138 353.076233,216.241638 357.165009,217.502243 
	C353.169037,218.779724 349.528687,219.585617 346.242310,221.139954 
	C344.510132,221.959213 342.617737,223.923096 342.254028,225.672867 
	C341.973755,227.021286 343.614929,229.514374 345.046234,230.258118 
	C346.405884,230.964661 348.943848,230.611572 350.351990,229.738174 
	C352.550049,228.374786 354.231689,226.178818 356.823639,224.023102 
M238.011063,280.488220 
	C236.441452,280.769531 234.871841,281.050842 233.198242,281.350800 
	C233.198242,282.839142 233.198242,284.247406 233.198242,285.802643 
	C243.156433,285.802643 252.917252,285.802643 262.811554,285.802643 
	C262.811554,284.189453 262.811554,282.774628 262.811554,281.396759 
	C259.829010,280.819641 257.020233,280.276184 253.878571,279.668304 
	C253.878571,262.442902 253.878571,245.360870 253.878571,227.664978 
	C246.782135,228.151154 240.107117,228.608459 233.224792,229.079971 
	C233.224792,230.712708 233.224792,232.124008 233.224792,233.728027 
	C236.046204,234.276855 238.857224,234.823654 241.998718,235.434738 
	C241.998718,249.499023 242.049026,263.632050 241.862030,277.761902 
	C241.851822,278.532959 239.861374,279.277802 238.011063,280.488220 
M239.000107,208.622131 
	C239.708435,215.750748 244.998077,218.851959 251.094498,215.112534 
	C252.815125,214.057114 253.768021,210.619980 253.784668,208.266083 
	C253.798553,206.303177 252.422821,203.387085 250.799103,202.531204 
	C245.743027,199.866058 241.075119,202.225708 239.000107,208.622131 
z"/>
<path fill="#FFFFFF" opacity="1.000000" stroke="none" 
	d="
M77.740021,256.311035 
	C76.321701,254.473572 75.289215,252.760712 73.884506,251.445374 
	C72.762627,250.394852 71.187538,249.828308 69.813622,249.046936 
	C69.209091,250.592712 68.113304,252.128540 68.081772,253.685898 
	C67.909882,262.174377 68.000015,270.668152 68.000015,279.522491 
	C70.538109,280.132904 73.115715,280.752838 75.813324,281.401642 
	C75.813324,282.821106 75.813324,284.234772 75.813324,285.809875 
	C65.866348,285.809875 56.104977,285.809875 46.180023,285.809875 
	C46.180023,284.206238 46.180023,282.793121 46.180023,281.399841 
	C49.154026,280.822845 51.962048,280.278046 54.863388,279.715118 
	C54.863388,257.256226 54.863388,234.966583 54.863388,212.200104 
	C52.145493,211.674332 49.353325,211.134186 46.198189,210.523819 
	C46.129959,209.391968 46.044090,207.967453 45.941319,206.262527 
	C55.899563,206.262527 65.658676,206.262527 75.709595,206.262527 
	C75.709595,207.604034 75.709595,208.997955 75.709595,210.509415 
	C73.271019,211.075531 70.682175,211.676559 68.116714,212.272141 
	C68.116714,222.272629 68.116714,231.909027 68.116714,241.741974 
	C72.770737,242.977859 73.876175,238.624939 75.758377,236.495392 
	C82.437019,228.939011 88.593071,220.920761 95.675827,212.177963 
	C93.041008,211.565155 90.874077,211.061172 88.308273,210.464417 
	C88.308273,209.400040 88.308273,207.868896 88.308273,206.165985 
	C96.371231,206.165985 104.327477,206.165985 112.641777,206.165985 
	C112.641777,207.634995 112.641777,209.149948 112.641777,211.108398 
	C104.517136,209.456818 101.854759,216.465622 97.766129,220.910782 
	C92.251129,226.906693 87.381691,233.496368 82.064110,240.041901 
	C90.924248,252.541214 99.801529,265.428864 109.177284,277.943024 
	C110.792931,280.099487 114.526619,280.669098 117.801216,282.217194 
	C117.801216,282.724640 117.801216,284.149384 117.801216,285.788025 
	C107.637894,285.788025 97.545158,285.788025 87.226250,285.788025 
	C87.226250,284.286682 87.226250,282.883148 87.226250,281.118042 
	C89.026253,281.118042 90.785576,281.118042 94.352722,281.118042 
	C91.518906,276.608154 89.422981,273.074432 87.130356,269.673309 
	C84.157265,265.262695 81.027504,260.957672 77.740021,256.311035 
z"/>
<path fill="#FFFFFF" opacity="1.000000" stroke="none" 
	d="
M441.615448,281.777832 
	C431.130066,288.886139 420.087036,287.983612 408.952332,285.398651 
	C406.106079,284.737885 403.608063,283.142822 401.775482,287.089813 
	C401.371918,287.959106 398.994110,287.911774 397.366150,288.327179 
	C396.887329,278.679199 396.431854,269.501465 395.982635,260.449615 
	C400.820648,258.613037 402.153320,261.592560 402.940186,264.939606 
	C404.770508,272.725189 408.775299,278.345245 416.932343,280.503326 
	C422.619904,282.008087 434.081573,280.060913 437.761292,274.950470 
	C443.581848,266.866821 441.176544,257.174103 431.753784,254.040405 
	C425.380798,251.920929 418.976868,249.844223 412.481049,248.154800 
	C398.394440,244.491211 395.974243,234.254715 397.174957,225.218552 
	C398.889008,212.319061 407.770660,204.797058 420.050537,205.097000 
	C425.186798,205.222473 430.279327,206.676254 435.425751,207.027435 
	C438.399475,207.230362 441.441040,206.439377 445.000427,206.033127 
	C445.000427,209.854172 444.826111,213.633392 445.049774,217.388916 
	C445.270630,221.097183 445.893921,224.781479 446.376648,228.773682 
	C443.955963,228.773682 442.201813,228.773682 440.439667,228.773682 
	C437.977783,221.416519 435.888214,213.631302 426.973358,211.542770 
	C420.509033,210.028381 414.294006,210.646805 409.444397,216.023422 
	C404.982910,220.969727 405.993500,229.090179 412.062988,231.869949 
	C418.421417,234.782043 425.243256,236.684143 431.867432,239.013809 
	C439.510254,241.701706 446.717743,244.919785 448.998444,253.784607 
	C451.708832,264.319763 449.672638,273.684448 441.615448,281.777832 
z"/>
<path fill="#FFFFFF" opacity="1.000000" stroke="none" 
	d="
M309.229828,285.999939 
	C304.261292,286.403046 306.589905,283.214630 305.941437,281.489105 
	C308.465912,280.841187 310.608856,280.291229 312.999298,279.677704 
	C312.999298,267.471741 313.068787,255.337479 312.965759,243.204681 
	C312.923401,238.218918 308.949646,236.486221 305.138763,236.145798 
	C297.140747,235.431366 288.625305,241.039993 288.928741,250.227081 
	C289.247162,259.867188 289.000000,269.526031 289.000000,279.549591 
	C291.218109,280.169617 293.463196,280.797180 295.808899,281.452850 
	C295.808899,282.828979 295.808899,284.242188 295.808899,285.811279 
	C286.860992,285.811279 278.103180,285.811279 269.178101,285.811279 
	C269.178101,284.209991 269.178101,282.797577 269.178101,281.428070 
	C271.821686,280.866821 274.300262,280.340607 276.863037,279.796539 
	C276.863037,264.946594 276.863037,250.325790 276.863037,235.460938 
	C274.456085,234.950806 271.987030,234.427521 269.235260,233.844299 
	C269.139435,232.474915 269.038239,231.028473 268.914276,229.257141 
	C274.878235,228.746475 280.686737,228.249115 287.074585,227.702148 
	C287.074585,231.141846 287.074585,234.003403 287.074585,238.229767 
	C293.588074,229.799210 301.151550,227.303070 310.308502,227.888062 
	C318.784424,228.429535 324.945343,234.118561 324.985657,242.765747 
	C325.042267,254.912445 325.000000,267.059601 325.000000,279.545044 
	C327.569855,280.154114 330.151306,280.765930 332.794647,281.392395 
	C332.794647,282.855988 332.794647,284.265167 332.794647,286.000000 
	C324.964996,286.000000 317.334778,286.000000 309.229828,285.999939 
z"/>
<path fill="#FFFFFF" opacity="1.000000" stroke="none" 
	d="
M134.017853,237.335159 
	C135.149200,238.361099 136.287277,238.963837 137.838852,239.785538 
	C137.483719,242.713531 139.890762,246.896484 134.807693,248.993790 
	C131.294022,250.443512 128.140335,249.866470 125.656555,247.090164 
	C123.110428,244.244141 123.403503,238.586044 126.144287,235.386124 
	C130.261566,230.579117 135.413132,227.750732 141.894119,228.027954 
	C145.958313,228.201797 150.154709,228.090927 154.037247,229.093521 
	C161.052536,230.905106 164.735031,235.969086 164.984818,243.043304 
	C165.375336,254.103378 165.764832,265.165405 165.937943,276.230011 
	C165.987473,279.395630 166.446472,281.214752 170.256378,281.165009 
	C171.700073,281.146149 173.168106,282.992004 174.965897,284.220917 
	C168.702240,288.445312 156.847214,288.801575 154.077347,280.485474 
	C148.954346,286.670624 142.210068,287.465424 134.966797,287.049316 
	C129.714691,286.747620 123.526840,283.201874 122.313339,278.744751 
	C120.387596,271.671722 121.025894,264.424561 126.558151,261.057465 
	C130.650742,258.566589 135.582123,257.057281 140.337479,256.169464 
	C144.635437,255.367020 149.201385,256.000000 154.372314,256.000000 
	C153.882385,250.359192 153.728149,245.142868 152.896301,240.036942 
	C152.161194,235.524841 148.088348,233.929230 144.339127,233.285858 
	C140.575668,232.640030 136.448044,232.852280 134.017853,237.335159 
M137.021011,264.483826 
	C136.166199,266.695679 134.627945,268.903870 134.616043,271.120239 
	C134.597992,274.481232 134.783920,278.412811 138.840958,279.885681 
	C145.255020,282.214264 153.557709,276.516968 153.972397,269.585419 
	C154.137466,266.826233 153.999512,264.048920 153.999512,259.842133 
	C148.040985,261.371796 142.861130,262.701569 137.021011,264.483826 
z"/>
<path fill="#FFFFFF" opacity="1.000000" stroke="none" 
	d="
M209.981323,253.910431 
	C212.066132,247.279892 214.132248,241.059799 216.384232,234.280182 
	C213.790710,234.113998 211.598099,233.973511 209.216034,233.820877 
	C209.216034,232.266937 209.216034,230.856720 209.216034,229.000000 
	C212.713440,229.000000 216.171005,229.000000 219.628571,229.000000 
	C222.931137,229.000000 226.233688,229.000000 229.765625,229.000000 
	C229.765625,230.693893 229.765625,232.091476 229.765625,233.492355 
	C229.472076,233.658615 229.185013,233.968185 228.940292,233.937729 
	C225.335846,233.489197 223.806320,234.820648 222.585281,238.575348 
	C217.736496,253.485336 212.052887,268.123505 207.182022,283.026886 
	C206.080231,286.398041 204.200836,286.221527 202.049438,285.914825 
	C199.539276,285.556946 196.418762,287.775635 194.845474,283.109070 
	C189.889252,268.408600 184.248001,253.940491 179.049622,239.319260 
	C177.839600,235.915909 177.157852,232.466156 172.190796,234.197052 
	C172.190796,232.174530 172.190796,230.761276 172.190796,229.191132 
	C180.800858,229.191132 189.221069,229.191132 197.819672,229.191132 
	C197.819672,230.787781 197.819672,232.193359 197.819672,233.947784 
	C195.554932,233.947784 193.455765,233.947784 190.634995,233.947784 
	C194.647659,246.578171 198.495590,258.690002 202.343506,270.801819 
	C202.782944,270.958069 203.222382,271.114319 203.661835,271.270569 
	C205.762100,265.620667 207.862381,259.970764 209.981323,253.910431 
z"/>
<path fill="#FFFFFF" opacity="1.000000" stroke="none" 
	d="
M356.477905,224.179352 
	C354.231689,226.178818 352.550049,228.374786 350.351990,229.738174 
	C348.943848,230.611572 346.405884,230.964661 345.046234,230.258118 
	C343.614929,229.514374 341.973755,227.021286 342.254028,225.672867 
	C342.617737,223.923096 344.510132,221.959213 346.242310,221.139954 
	C349.528687,219.585617 353.169037,218.779724 357.165009,217.502243 
	C353.076233,216.241638 349.418518,215.263138 345.884430,213.951569 
	C344.451599,213.419815 342.250671,212.193420 342.221680,211.228348 
	C342.164185,209.315018 342.840271,206.577164 344.208832,205.650421 
	C345.562500,204.733749 348.449005,205.023788 350.118713,205.865021 
	C353.012024,207.322769 355.485229,209.614304 358.134613,211.556122 
	C358.464661,211.297195 358.794678,211.038254 359.124695,210.779312 
	C358.558258,207.483337 358.201813,204.133102 357.368134,200.906189 
	C356.480988,197.472519 358.417969,196.258606 361.050507,196.098480 
	C363.538788,195.947098 367.395569,194.702240 366.944946,199.561951 
	C366.595673,203.328873 365.752655,207.049988 364.910156,212.105453 
	C367.435547,209.810074 369.008850,208.236771 370.729034,206.845001 
	C374.899170,203.471024 379.873138,204.422867 380.912933,208.795776 
	C381.494476,211.241531 380.947021,213.250961 378.098114,213.984390 
	C373.912201,215.061996 369.745026,216.212280 365.151550,217.443726 
	C368.957764,218.691360 372.551392,219.588776 375.885468,221.070312 
	C377.800476,221.921265 379.935883,223.431458 380.730682,225.202103 
	C381.185455,226.215286 379.463593,229.324188 378.163544,229.738632 
	C376.311737,230.328995 373.667175,229.828476 371.869080,228.855530 
	C369.343475,227.488968 367.283997,225.261047 365.025146,223.401535 
	C364.706360,223.694641 364.387573,223.987747 364.068787,224.280853 
	C364.704529,227.202698 365.562561,230.101120 365.873718,233.057129 
	C366.010803,234.359573 365.352112,236.671387 364.504974,236.971085 
	C362.324799,237.742401 359.757874,238.074936 357.517303,237.658524 
	C356.755554,237.516937 355.957825,234.547546 356.146515,232.987656 
	C356.468658,230.324432 357.600006,227.764496 358.248810,225.126099 
	C358.306976,224.889572 357.323425,224.396851 356.477905,224.179352 
z"/>
<path fill="#FFFFFF" opacity="1.000000" stroke="none" 
	d="
M238.401886,280.261536 
	C239.861374,279.277802 241.851822,278.532959 241.862030,277.761902 
	C242.049026,263.632050 241.998718,249.499023 241.998718,235.434738 
	C238.857224,234.823654 236.046204,234.276855 233.224792,233.728027 
	C233.224792,232.124008 233.224792,230.712708 233.224792,229.079971 
	C240.107117,228.608459 246.782135,228.151154 253.878571,227.664978 
	C253.878571,245.360870 253.878571,262.442902 253.878571,279.668304 
	C257.020233,280.276184 259.829010,280.819641 262.811554,281.396759 
	C262.811554,282.774628 262.811554,284.189453 262.811554,285.802643 
	C252.917252,285.802643 243.156433,285.802643 233.198242,285.802643 
	C233.198242,284.247406 233.198242,282.839142 233.198242,281.350800 
	C234.871841,281.050842 236.441452,280.769531 238.401886,280.261536 
z"/>
<path fill="#FFFFFF" opacity="1.000000" stroke="none" 
	d="
M239.000839,208.202560 
	C241.075119,202.225708 245.743027,199.866058 250.799103,202.531204 
	C252.422821,203.387085 253.798553,206.303177 253.784668,208.266083 
	C253.768021,210.619980 252.815125,214.057114 251.094498,215.112534 
	C244.998077,218.851959 239.708435,215.750748 239.000839,208.202560 
z"/>
<path fill="#000000" opacity="1.000000" stroke="none" 
	d="
M137.351135,264.257599 
	C142.861130,262.701569 148.040985,261.371796 153.999512,259.842133 
	C153.999512,264.048920 154.137466,266.826233 153.972397,269.585419 
	C153.557709,276.516968 145.255020,282.214264 138.840958,279.885681 
	C134.783920,278.412811 134.597992,274.481232 134.616043,271.120239 
	C134.627945,268.903870 136.166199,266.695679 137.351135,264.257599 
z"/>
</svg>